<svg xmlns="http://www.w3.org/2000/svg" viewBox="0 0 24 24" fill="none">
  <path fill-rule="evenodd" clip-rule="evenodd" d="M12 2C9.5 6 8.5 10 10.5 13.5C9 11.5 7 11 5 12C7 13.5 9 13.5 10.5 15C9 16.5 7 16.5 5 17.5C7 19 9 17.5 11 16C9.5 18 8 20.5 8 22C11 21 13 18 13.5 15C14 18 15.5 20.5 18 22C17.5 20 16.5 18 15 16C17.5 17.5 19 18.5 21 17.5C19 16.5 17 16.5 15.5 15C17 13.5 19 13.5 21 12C19 11 17 11.5 15.5 13.5C17.5 10 16.5 6 14 2C13.5 6 13 8 12 12C11 8 10.5 6 12 2Z" fill="#22c55e"/>
  <circle cx="12" cy="12" r="1.5" fill="#16a34a"/>
</svg> 