<?xml version="1.0" encoding="UTF-8"?>
<svg id="Layer_1" data-name="Layer 1" xmlns="http://www.w3.org/2000/svg" viewBox="0 0 450.85 129.45">
  <defs>
    <style>
      .cls-1 {
        fill: #141414;
        stroke-width: 0px;
      }
    </style>
  </defs>
  <g>
    <path class="cls-1" d="M165.91,86.99c-3.79,0-6.89-1.3-9.29-3.91-2.4-2.61-3.6-6.49-3.6-11.65v-23.11h-5.33v-2.22l21.34-16h1.78v14.22h12.45v4h-12.45v33.34h.44c1.66-.77,3.17-1.84,4.53-3.2,1.36-1.36,2.55-2.69,3.56-4,1.13-1.54,2.13-3.14,3.02-4.8l3.11,1.78c-2.91,5.39-5.96,9.33-9.16,11.82-3.2,2.49-6.67,3.73-10.4,3.73Z"/>
    <path class="cls-1" d="M198.36,86.99c-2.25,0-4-.76-5.24-2.27-1.25-1.52-1.87-4.25-1.87-8.21v-34.06h17.78v34.64h.44c1.18-1.21,2.4-2.73,3.65-4.56,1.07-1.55,2.22-3.47,3.47-5.77,1.25-2.29,2.43-5.02,3.56-8.18v-16.12h17.78v34.64h.45c1.18-1.21,2.31-2.55,3.38-4.05.95-1.26,1.88-2.7,2.8-4.31.92-1.61,1.67-3.27,2.27-4.99v-21.29h11.11c-1.54,6.99-3.51,13.23-5.91,18.73-2.4,5.5-4.99,10.17-7.78,14.02-2.79,3.84-5.64,6.77-8.58,8.78-2.93,2.01-5.74,3.01-8.4,3.01-2.25,0-4-.75-5.25-2.24-1.24-1.49-1.87-4.19-1.87-8.09v-8.61h-.45c-3.14,6.09-6.52,10.77-10.13,14.04-3.62,3.27-7.35,4.91-11.2,4.91Z"/>
    <path class="cls-1" d="M261.93,26.98l10.22-10.31,10.22,10.31-10.22,10.13-10.22-10.13ZM263.26,42.45h17.78v44.45h-17.78v-44.45Z"/>
    <path class="cls-1" d="M309.05,86.99c-3.14,0-5.97-.21-8.49-.62-2.52-.41-4.67-.86-6.45-1.33-2.08-.59-3.91-1.27-5.51-2.04l6.67-14.85h.44c1.72,2.71,3.47,5.11,5.25,7.2.77.9,1.57,1.79,2.4,2.67.83.88,1.69,1.65,2.58,2.33.89.68,1.79,1.22,2.71,1.61.92.4,1.79.59,2.62.59,1.18,0,2.07-.27,2.67-.81.59-.54.89-1.27.89-2.18,0-.85-.36-1.77-1.07-2.74s-2.13-2.19-4.27-3.68l-12.45-8.46c-2.13-1.48-3.71-2.85-4.71-4.1-1.01-1.25-1.51-2.62-1.51-4.1,0-1.6.49-3.23,1.47-4.91.98-1.68,2.44-3.21,4.4-4.58,1.96-1.37,4.37-2.48,7.25-3.33,2.87-.85,6.21-1.28,10-1.28,2.9,0,5.42.17,7.56.49,2.13.33,3.88.7,5.24,1.11,1.6.47,2.96.98,4.09,1.51l-7.11,12.92h-.45c-1.3-2.12-2.67-4.04-4.09-5.75-1.25-1.49-2.64-2.83-4.18-4.03-1.54-1.2-3.08-1.8-4.62-1.8-.95,0-1.7.3-2.27.9-.56.6-.84,1.3-.84,2.09,0,1.14.49,2.17,1.47,3.08.98.91,2.41,2.03,4.31,3.33l12.45,8.47c2.19,1.48,3.7,2.82,4.53,4.02.83,1.2,1.24,2.59,1.24,4.19,0,1.71-.47,3.41-1.42,5.09-.95,1.68-2.36,3.19-4.22,4.53-1.87,1.34-4.18,2.42-6.93,3.25-2.76.83-5.97,1.24-9.65,1.24Z"/>
    <path class="cls-1" d="M352.61,86.99c-3.79,0-6.89-1.3-9.29-3.91-2.4-2.61-3.6-6.49-3.6-11.65v-23.11h-5.33v-2.22l21.34-16h1.78v14.22h12.45v4h-12.45v33.34h.44c1.66-.77,3.17-1.84,4.53-3.2,1.36-1.36,2.55-2.69,3.56-4,1.13-1.54,2.13-3.14,3.02-4.8l3.11,1.78c-2.91,5.39-5.96,9.33-9.16,11.82-3.2,2.49-6.67,3.73-10.4,3.73Z"/>
    <path class="cls-1" d="M377.95,21.11h17.78v65.79h-17.78V21.11Z"/>
    <path class="cls-1" d="M409.95,91.88h23.12v-28.98h-.45c-1.13,2.55-2.44,5.23-3.96,8.05-1.51,2.82-3.14,5.41-4.89,7.78-1.75,2.37-3.57,4.33-5.47,5.87-1.9,1.54-3.79,2.31-5.69,2.31-.89,0-1.72-.18-2.49-.53-.77-.36-1.42-.95-1.96-1.78-.53-.83-.96-1.93-1.29-3.29-.33-1.36-.49-3.05-.49-5.07v-33.78h17.78v27.56h.44c1.36-1.89,2.7-4.21,4-6.93,1.13-2.31,2.3-5.17,3.51-8.58,1.21-3.41,2.27-7.42,3.16-12.05h15.56v23.28c0,6.15-1.07,11.83-3.2,17.04-2.13,5.21-5.04,9.71-8.71,13.48-3.68,3.78-7.96,6.73-12.85,8.87-4.89,2.13-10.12,3.21-15.69,3.21h-.44v-16.45Z"/>
  </g>
  <g>
    <path class="cls-1" d="M61.15,41.87l-6.3,3.32-3.21,1.71c-.57.3-1.21-.25-1-.85l1.18-3.44,2.3-6.74c2.37-6.83,7.06-13.29,12.96-17.99l15.36-11.96L89.81.16c.61-.47,1.43.23,1.05.9l-4.54,8.17-9.42,17.04c-3.66,6.61-9.38,12.2-15.75,15.61Z"/>
    <path class="cls-1" d="M79.33,45.6l-6.53-2.85-3.34-1.45c-.59-.26-.56-1.1.04-1.31l3.43-1.22,6.7-2.4c6.82-2.4,14.8-2.77,22.15-1.08l18.93,4.55,9.09,2.17c.75.18.71,1.26-.05,1.38l-9.21,1.55-19.19,3.25c-7.45,1.26-15.39.28-22.03-2.58Z"/>
    <path class="cls-1" d="M87.75,62.14l-1.84-6.88-.95-3.51c-.17-.62.51-1.12,1.05-.78l3.09,1.92,6.06,3.74c6.13,3.83,11.39,9.85,14.66,16.64l8.25,17.63,3.97,8.45c.33.7-.54,1.34-1.11.83l-6.95-6.24-14.51-12.98c-5.63-5.04-9.81-11.86-11.72-18.83Z"/>
    <path class="cls-1" d="M80.07,79.03l4.23-5.73,2.15-2.93c.38-.52,1.19-.3,1.27.34l.43,3.61.85,7.07c.82,7.18-.6,15.04-3.87,21.84l-8.65,17.44-4.13,8.38c-.34.69-1.38.41-1.34-.35l.54-9.33,1.1-19.44c.43-7.55,3.16-15.06,7.42-20.9Z"/>
    <path class="cls-1" d="M62.07,83.56l7.12-.26,3.63-.14c.64-.03.98.75.53,1.2l-2.56,2.59-5,5.07c-5.1,5.12-12.13,8.91-19.49,10.59l-19.03,4.12-9.13,1.99c-.75.16-1.19-.82-.56-1.27l7.63-5.39,15.88-11.26c6.17-4.37,13.74-6.92,20.96-7.23Z"/>
    <path class="cls-1" d="M47.31,72.31l4.64,5.4,2.38,2.75c.42.48.03,1.23-.61,1.16l-3.62-.39-7.08-.74c-7.18-.8-14.53-3.93-20.43-8.64l-15.08-12.31L.26,53.65c-.6-.49-.1-1.44.64-1.23l8.97,2.6,18.71,5.4c7.26,2.1,13.98,6.43,18.73,11.88Z"/>
    <path class="cls-1" d="M46.9,53.76l-1.33,7-.67,3.58c-.12.63-.95.79-1.29.25l-1.95-3.07-3.83-6c-3.86-6.11-5.99-13.81-5.98-21.35l.22-19.47.09-9.34c0-.77,1.07-.97,1.36-.26l3.56,8.64,7.44,17.99c2.89,6.98,3.69,14.94,2.39,22.05Z"/>
  </g>
</svg>