<?xml version="1.0" encoding="utf-8"?>
<!-- Generator: Adobe Illustrator 28.3.0, SVG Export Plug-In . SVG Version: 6.00 Build 0)  -->
<svg version="1.1" id="Layer_1" xmlns="http://www.w3.org/2000/svg" xmlns:xlink="http://www.w3.org/1999/xlink" x="0px" y="0px"
	 viewBox="0 0 143.4 143.4" style="enable-background:new 0 0 143.4 143.4;" xml:space="preserve">
<style type="text/css">
	.st0{fill:#141414;}
	.st1{fill-rule:evenodd;clip-rule:evenodd;fill:#141414;}
</style>
<path class="st0" d="M71.7,27.1c-25.5,0-46.1,20.7-46.1,46.1c0,25.5,20.7,46.1,46.1,46.1s46.1-20.7,46.1-46.1S97.2,27.1,71.7,27.1z
	 M71.7,96.2c-17,0-31.9-9.2-39.9-22.9c8-13.7,22.9-22.9,39.9-22.9c17,0,31.9,9.2,39.9,22.9C103.6,87,88.8,96.2,71.7,96.2z"/>
<path class="st0" d="M71.7,58c-8.4,0-15.2,6.8-15.2,15.2s6.8,15.2,15.2,15.2s15.2-6.8,15.2-15.2C86.9,64.9,80.1,58,71.7,58z
	 M69.8,69.4l0.6-1c0.6-1,1.5-1.9,2.6-2.4l2.8-1.4l1.3-0.7c0.1-0.1,0.2,0.1,0.1,0.2l-1,1.1l-2,2.4c-0.8,0.9-1.8,1.6-2.9,2l-1.1,0.3
	l-0.6,0.2c-0.1,0-0.2-0.1-0.1-0.2L69.8,69.4z M66.9,67.5l0.6-3.1l0.3-1.5c0-0.1,0.2-0.1,0.2,0l0.3,1.5l0.6,3.1
	c0.2,1.2,0.1,2.5-0.3,3.5l-0.4,1.1L68,72.6c0,0.1-0.2,0.1-0.2,0l-0.2-0.5L67.2,71C66.8,69.9,66.7,68.7,66.9,67.5z M61.3,69.6
	c-0.1-0.1,0-0.2,0.1-0.2l1.3,0.7l2.8,1.4c1.1,0.5,2,1.4,2.6,2.4l0.6,1l0.3,0.5c0.1,0.1,0,0.2-0.1,0.2l-0.6-0.2l-1.1-0.3
	c-1.1-0.3-2.2-1.1-2.9-2l-2-2.4L61.3,69.6z M64,78.7l-1.5,0c-0.1,0-0.2-0.2,0-0.2l1.4-0.6l2.8-1.3c1.1-0.5,2.4-0.7,3.5-0.5l1.1,0.2
	l0.6,0.1c0.1,0,0.1,0.1,0,0.2l-0.5,0.3l-0.9,0.6c-1,0.6-2.2,1-3.4,1.1L64,78.7z M74.5,75.5l-0.1,1.1c-0.1,1.2-0.5,2.3-1.3,3.3
	l-1.9,2.5l-0.9,1.2c-0.1,0.1-0.2,0-0.2-0.1l0.4-1.4l0.8-3c0.3-1.2,1-2.3,1.8-3.1l0.8-0.8l0.4-0.4c0.1-0.1,0.2,0,0.2,0.1L74.5,75.5z
	 M78.9,80.5L78,79.4l-1.9-2.5c-0.7-1-1.2-2.2-1.3-3.3l-0.1-1.1l0-0.6c0-0.1,0.1-0.2,0.2-0.1l0.4,0.4l0.8,0.8
	c0.8,0.8,1.5,1.9,1.8,3.1l0.8,3l0.4,1.4C79.1,80.6,79,80.6,78.9,80.5z M82,71.9l-1.5,0l-3.1-0.1c-1.2,0-2.4-0.4-3.4-1.1l-0.9-0.6
	l-0.5-0.3c-0.1-0.1-0.1-0.2,0-0.2l0.6-0.1l1.1-0.2c1.1-0.2,2.4,0,3.5,0.5l2.8,1.3l1.4,0.6C82.2,71.7,82.1,71.9,82,71.9z"/>
</svg>
