<?xml version="1.0" encoding="utf-8"?>
<!-- Generator: Adobe Illustrator 28.3.0, SVG Export Plug-In . SVG Version: 6.00 Build 0)  -->
<svg version="1.1" id="Layer_1" xmlns="http://www.w3.org/2000/svg" xmlns:xlink="http://www.w3.org/1999/xlink" x="0px" y="0px"
	 viewBox="0 0 143.4 143.4" style="enable-background:new 0 0 143.4 143.4;" xml:space="preserve">
<style type="text/css">
	.st0{fill:#141414;}
	.st1{fill-rule:evenodd;clip-rule:evenodd;fill:#141414;}
</style>
<g>
	<path class="st0" d="M70.6,55.7L66,57.1l-2.3,0.7c-0.4,0.1-0.8-0.3-0.6-0.7l1.2-2.1l2.4-4.2c2.4-4.2,6.4-7.9,10.9-10.3l11.7-6
		l5.6-2.9c0.5-0.2,0.9,0.3,0.6,0.7l-4.1,4.8L83,47.3C79.8,51.3,75.3,54.2,70.6,55.7z"/>
	<path class="st0" d="M82.2,60.5l-4-2.7l-2-1.4c-0.4-0.2-0.2-0.8,0.2-0.9l2.4-0.4l4.8-0.7c4.8-0.7,10.2,0.1,14.8,2.1l12,5.4l5.7,2.6
		c0.5,0.2,0.3,0.9-0.2,0.9l-6.3-0.2L96.5,65C91.4,64.9,86.2,63.2,82.2,60.5z"/>
	<path class="st0" d="M85.6,72.5l-0.3-4.8l-0.2-2.5c0-0.4,0.5-0.7,0.8-0.4l1.8,1.7l3.5,3.3c3.6,3.3,6.3,8,7.6,12.9l3.2,12.8l1.6,6.1
		c0.1,0.5-0.5,0.8-0.8,0.4L99,97l-8-10.5C87.9,82.5,86,77.4,85.6,72.5z"/>
	<path class="st0" d="M78.4,82.8l3.5-3.3l1.8-1.7c0.3-0.3,0.8,0,0.8,0.4l-0.2,2.5L84,85.5c-0.4,4.9-2.3,9.9-5.4,14l-8,10.5l-3.8,5
		c-0.3,0.4-1,0.1-0.8-0.4l1.6-6.1l3.2-12.8C72,90.7,74.8,86.1,78.4,82.8z"/>
	<path class="st0" d="M65.9,83.5l4.8,0.7l2.4,0.4c0.4,0.1,0.6,0.6,0.2,0.9l-2,1.4l-4,2.7c-4,2.7-9.2,4.4-14.3,4.5l-13.1,0.3
		l-6.3,0.2c-0.5,0-0.7-0.7-0.2-0.9l5.7-2.6l12-5.4C55.7,83.5,61,82.7,65.9,83.5z"/>
	<path class="st0" d="M57.5,74.1l2.4,4.2l1.2,2.1c0.2,0.4-0.1,0.8-0.6,0.7l-2.3-0.7L53.6,79c-4.7-1.4-9.1-4.5-12.4-8.3l-8.4-10.1
		l-4.1-4.8c-0.3-0.4,0.1-1,0.6-0.7l5.6,2.9l11.7,6C51.2,66.1,55.1,69.9,57.5,74.1z"/>
	<path class="st0" d="M59.6,61.7l-1.8,4.5l-0.9,2.3c-0.2,0.4-0.7,0.4-0.9,0l-0.9-2.3l-1.8-4.5c-1.8-4.5-2.2-9.9-1.2-14.9l2.6-12.9
		l1.3-6.2c0.1-0.5,0.8-0.5,0.9,0l1.3,6.2l2.6,12.9C61.9,51.8,61.4,57.2,59.6,61.7z"/>
</g>
</svg>
