<?xml version="1.0" encoding="utf-8"?>
<!-- Generator: Adobe Illustrator 28.3.0, SVG Export Plug-In . SVG Version: 6.00 Build 0)  -->
<svg version="1.1" id="Layer_1" xmlns="http://www.w3.org/2000/svg" xmlns:xlink="http://www.w3.org/1999/xlink" x="0px" y="0px"
	 viewBox="0 0 143.4 143.4" style="enable-background:new 0 0 143.4 143.4;" xml:space="preserve">
<style type="text/css">
	.st0{fill:#141414;}
	.st1{fill-rule:evenodd;clip-rule:evenodd;fill:#141414;}
</style>
<path d="M60.1,88.8c-2.7,2.3-6.2,3.6-10,3.6c-3.8,0-7.3-1.4-10-3.6c-9.8,2.2-19.1,10.9-19.1,21.3v3.1c0,2.3,1.9,4.2,4.2,4.2H75
	c2.3,0,4.2-1.9,4.2-4.2v-3.1C79.2,99.7,69.8,91,60.1,88.8z M50.1,55c-8.6,0-15.6,7-15.6,15.6c0,8.6,7,15.6,15.6,15.6
	s15.6-7,15.6-15.6C65.7,62,58.7,55,50.1,55z"/>
<path d="M126.8,31.5H76.1c-3,0-5.4,2.4-5.4,5.4v25.6c0,3,2.4,5.4,5.4,5.4h50.7c3,0,5.4-2.4,5.4-5.4V36.9
	C132.3,33.9,129.8,31.5,126.8,31.5z M98.2,45.5l0.2-0.7l0-0.1l0.5-1.5c0.5-1.6,1.6-3,3-4.1l3.5-2.7l1.7-1.3c0.1-0.1,0.3,0,0.2,0.2
	l-1,1.9l-2.2,3.9c-0.8,1.5-2.1,2.8-3.6,3.6l-1.4,0.8l-0.7,0.4C98.3,45.7,98.1,45.6,98.2,45.5z M93.9,38.3l0-2.1
	c0-0.2,0.2-0.2,0.3-0.1l0.8,2l1.7,4.1c0.7,1.6,0.9,3.4,0.6,5L97,48.8l-0.2,0.8c0,0.2-0.2,0.2-0.3,0.1l-0.4-0.6L96.1,49l-0.9-1.4
	c-0.9-1.4-1.4-3.2-1.4-4.9L93.9,38.3z M86.6,47.2c-0.1-0.1,0-0.3,0.1-0.3l2,0.6l4.3,1.2c1.7,0.5,3.2,1.5,4.3,2.7l1.1,1.2l0.5,0.6
	c0.1,0.1,0,0.3-0.1,0.3l-0.7-0.1l-0.1,0l-1.6-0.2c-1.6-0.2-3.3-0.9-4.7-2l-3.5-2.8L86.6,47.2z M101.6,56c-1.2,1.2-2.8,2-4.5,2.4
	l-4.3,0.9l-2.1,0.5c-0.2,0-0.3-0.2-0.1-0.3l1.8-1.2l3.6-2.6c1.4-1,3.2-1.6,4.8-1.7l1.6-0.1l0.8,0c0.1,0,0.2,0.2,0.1,0.3l-0.5,0.5
	l-0.1,0.1L101.6,56z M106.1,58.5l-2,4l-0.9,1.9c-0.1,0.2-0.3,0.1-0.3-0.1l0.1-2.1l0.2-4.4c0.1-1.7,0.7-3.5,1.7-4.8l1-1.3l0.5-0.7
	c0.1-0.1,0.3-0.1,0.3,0.1l0.1,0.7l0,0.1l0.2,1.6C107.1,55.2,106.8,57,106.1,58.5z M114.3,57.8l-1.6-1.4l-3.3-3
	c-1.3-1.2-2.2-2.7-2.7-4.3l-0.4-1.6l-0.2-0.8c0-0.1,0.1-0.2,0.2-0.2L107,47l1.4,0.9c1.4,0.9,2.6,2.2,3.4,3.8l1.9,4l0.9,1.9
	C114.6,57.8,114.4,58,114.3,57.8z M116.3,44.8l-2.1,0.3l-4.4,0.8c-1.7,0.3-3.5,0.1-5-0.6l-1.5-0.7l-0.8-0.3c-0.1,0-0.1-0.2,0-0.3
	l0.8-0.3l1.5-0.6c1.6-0.5,3.4-0.6,5.1-0.2l4.3,1l2.1,0.5C116.5,44.6,116.5,44.8,116.3,44.8z"/>
</svg>
