<?xml version="1.0" encoding="utf-8"?>
<!-- Generator: Adobe Illustrator 28.3.0, SVG Export Plug-In . SVG Version: 6.00 Build 0)  -->
<svg version="1.1" id="Layer_1" xmlns="http://www.w3.org/2000/svg" xmlns:xlink="http://www.w3.org/1999/xlink" x="0px" y="0px"
	 viewBox="0 0 143.4 143.4" style="enable-background:new 0 0 143.4 143.4;" xml:space="preserve">
<style type="text/css">
	.st0{fill:#141414;}
	.st1{fill-rule:evenodd;clip-rule:evenodd;fill:#141414;}
</style>
<g>
	<path d="M107.8,84.9v28.8c0,1.2-1,2.2-2.2,2.2H79.2V91.2c0-1-0.8-1.8-1.8-1.8H66c-1,0-1.8,0.8-1.8,1.8v24.6H37.8
		c-1.2,0-2.2-1-2.2-2.2V84.9c-0.9,0.1-1.8,0.3-2.8,0.3c-1.6,0-3.1-0.3-4.5-0.8v29.3c0,5.2,4.3,9.5,9.5,9.5h67.8
		c5.2,0,9.5-4.2,9.5-9.5V84.3c-1.4,0.5-3,0.8-4.5,0.8C109.6,85.2,108.7,85,107.8,84.9z"/>
	<path d="M98.5,101.9c1,0,1.8-0.8,1.8-1.8v-8.9c0-1-0.8-1.8-1.8-1.8H86.9c-1,0-1.8,0.8-1.8,1.8v8.9c0,1,0.8,1.8,1.8,1.8
		C86.9,101.9,98.5,101.9,98.5,101.9z"/>
	<path d="M56.5,101.9c1,0,1.8-0.8,1.8-1.8v-8.9c0-1-0.8-1.8-1.8-1.8H44.9c-1,0-1.8,0.8-1.8,1.8v8.9c0,1,0.8,1.8,1.8,1.8
		C44.9,101.9,56.5,101.9,56.5,101.9z"/>
	<path d="M118.2,76.4c-1.6,2.8-4.4,4.5-7.6,4.5c-2.5,0-4.9-1.1-6.5-2.9c-1.7,1.8-4,2.9-6.6,2.9c-2.4,0-4.7-1-6.3-2.6
		c-1.7,1.7-3.9,2.6-6.3,2.6h-0.6c-2.3,0-4.5-0.9-6.1-2.4c-1.7,1.5-3.8,2.4-6.1,2.4h-0.7c-2.3,0-4.4-0.9-6.1-2.4
		c-1.6,1.5-3.7,2.4-6.1,2.4h-0.6c-2.4,0-4.6-0.9-6.3-2.6c-1.7,1.6-3.9,2.6-6.3,2.6c-2.5,0-4.9-1.1-6.6-2.9c-1.6,1.8-4,2.9-6.5,2.9
		c-3.2,0-6.1-1.7-7.6-4.5c-1.6-2.8-1.5-6.1,0.2-8.8l6.6-10.4l1-5.5c0.5-2.6,2.7-4.4,5.3-4.4h13.2c1.5,9.8,9.9,17.3,20.1,17.3
		c10.2,0,18.7-7.5,20.1-17.3h13.3c2.6,0,4.8,1.9,5.3,4.4l1,5.5l6.5,10.4C119.6,70.3,119.6,73.5,118.2,76.4z"/>
</g>
<g>
	<path d="M71.7,28.9c-8.5,0-15.4,6.9-15.4,15.4c0,1,0.1,2.1,0.3,3.1c1.4,7,7.6,12.3,15.1,12.3c7.5,0,13.6-5.3,15.1-12.3
		c0.2-1,0.3-2,0.3-3.1C87.1,35.8,80.2,28.9,71.7,28.9z M69.5,40.7L69.5,40.7l0.4-1.2c0.4-1.1,1.2-2.2,2.2-3l2.5-2l1.2-1
		c0.1-0.1,0.2,0,0.2,0.2l-0.8,1.4l-1.6,2.8c-0.6,1.1-1.6,2-2.6,2.6L70,41l-0.5,0.3c-0.1,0-0.2,0-0.2-0.1L69.5,40.7z M66.2,36l0-1.5
		c0-0.1,0.2-0.2,0.2,0l0.6,1.4l1.2,3c0.5,1.2,0.6,2.5,0.4,3.7l-0.2,1.2l-0.1,0.6c0,0.1-0.2,0.1-0.2,0l-0.3-0.4l0-0.1l-0.6-1
		c-0.6-1-1-2.3-1-3.5L66.2,36z M61,42.4c-0.1-0.1,0-0.2,0.1-0.2l1.5,0.4l3.1,0.9c1.2,0.4,2.3,1.1,3.1,2l0.8,0.9l0.4,0.5
		c0.1,0.1,0,0.2-0.1,0.2L69.2,47L68,46.9c-1.2-0.1-2.4-0.7-3.4-1.4l-2.5-2L61,42.4z M71.8,48.8c-0.8,0.9-2,1.5-3.2,1.8l-3.2,0.7
		l-1.5,0.3c-0.1,0-0.2-0.1-0.1-0.2l1.3-0.9l2.6-1.9c1-0.7,2.3-1.2,3.5-1.2l1.2,0l0.6,0c0.1,0,0.2,0.1,0.1,0.2L72.6,48L71.8,48.8z
		 M75,50.7l-1.4,2.9l-0.7,1.4c-0.1,0.1-0.2,0.1-0.2-0.1l0.1-1.5l0.2-3.2c0.1-1.2,0.5-2.5,1.2-3.5l0.7-1l0.4-0.5c0.1-0.1,0.2,0,0.2,0
		l0.1,0.6l0.1,1.2C75.8,48.2,75.6,49.5,75,50.7z M81,50.2l-1.2-1L77.4,47c-0.9-0.8-1.6-2-1.9-3.1l-0.3-1.1L75,42.1
		c0-0.1,0.1-0.2,0.2-0.1l0.5,0.3l1,0.6c1,0.6,1.9,1.6,2.4,2.8l1.4,2.9l0.7,1.4C81.2,50.1,81,50.2,81,50.2z M82.4,40.7L80.9,41
		l-3.2,0.5c-1.2,0.2-2.5,0-3.7-0.4L73,40.6l-0.6-0.2c-0.1,0-0.1-0.2,0-0.2L73,40l1.1-0.4c1.1-0.4,2.5-0.5,3.7-0.2l3.1,0.8l1.5,0.4
		C82.5,40.5,82.5,40.7,82.4,40.7z"/>
</g>
</svg>
