<?xml version="1.0" encoding="utf-8"?>
<!-- Generator: Adobe Illustrator 28.3.0, SVG Export Plug-In . SVG Version: 6.00 Build 0)  -->
<svg version="1.1" id="Layer_1" xmlns="http://www.w3.org/2000/svg" xmlns:xlink="http://www.w3.org/1999/xlink" x="0px" y="0px"
	 viewBox="0 0 143.4 143.4" style="enable-background:new 0 0 143.4 143.4;" xml:space="preserve">
<style type="text/css">
	.st0{fill:#141414;}
	.st1{fill-rule:evenodd;clip-rule:evenodd;fill:#141414;}
</style>
<g>
	<polygon points="22,18.4 15.5,18.4 15.5,23.9 22,23.9 22,41.8 29.4,41.8 29.4,23.9 35.9,23.9 35.9,18.4 29.4,18.4 	"/>
	<path d="M61.2,32.8c0,0.6-0.1,1.2-0.1,1.9c0,0.7-0.1,1.3-0.1,2h-0.5c-0.1-0.6-0.2-1.3-0.3-1.9c-0.1-0.7-0.2-1.3-0.2-1.9l-1.6-12.2
		c-0.1-0.7-0.4-1.2-0.8-1.6s-1-0.6-1.7-0.6h-5.3c-0.7,0-1.2,0.2-1.7,0.6c-0.5,0.4-0.7,0.9-0.8,1.6l-1.6,12.2c-0.1,0.6-0.2,1.3-0.3,2
		c-0.1,0.7-0.2,1.4-0.3,2h-0.5c0-0.7,0-1.4,0-2.1s-0.1-1.3-0.1-1.8l-1.2-14.4H37l2.9,21.5c0.1,0.6,0.4,1.1,0.8,1.4
		c0.5,0.4,1,0.5,1.7,0.5h6.3c0.6,0,1.2-0.2,1.7-0.5c0.5-0.4,0.8-0.8,0.8-1.4L52.7,27c0.1-0.6,0.1-1.1,0.2-1.7c0-0.6,0.1-1.2,0.1-1.7
		h0.6c0,0.6,0.1,1.1,0.1,1.7c0,0.6,0.1,1.2,0.2,1.7l1.6,12.9c0.1,0.6,0.3,1.1,0.8,1.4c0.5,0.4,1,0.5,1.7,0.5h6.2
		c0.6,0,1.2-0.2,1.7-0.5c0.5-0.4,0.8-0.8,0.8-1.4l2.9-21.5h-7.3L61.2,32.8z"/>
	<path d="M84.9,28l-4.2-1.8c-0.8-0.3-1.3-0.6-1.6-0.8c-0.3-0.2-0.4-0.5-0.4-0.8c0-0.2,0-0.3,0.1-0.4c0.1-0.1,0.2-0.2,0.3-0.3
		c0.2-0.1,0.4-0.1,0.7-0.1c0.3,0,0.6,0,1.1,0c1.5,0,3,0,4.5,0c1.5,0,2.8,0,3.8,0.1l0.4-4.7c-1.4-0.5-2.9-0.8-4.4-1
		c-1.5-0.1-2.9-0.2-4.1-0.2c-1.8,0-3.3,0.1-4.5,0.3c-1.2,0.2-2.2,0.6-3,1.1c-0.7,0.5-1.3,1.2-1.6,2.1c-0.4,0.9-0.5,2-0.5,3.3
		c0,1.7,0.4,3.1,1.2,4.2c0.8,1.1,2.1,2,4,2.9l4.7,2c0.4,0.2,0.8,0.3,1,0.4c0.2,0.1,0.4,0.3,0.5,0.4c0.1,0.1,0.1,0.3,0.1,0.6
		c0,0.2-0.1,0.4-0.2,0.5c-0.1,0.1-0.4,0.2-0.7,0.3c-0.3,0-0.8,0.1-1.4,0.1c-0.4,0-1,0-1.9,0c-0.8,0-1.8,0-2.9-0.1S73.4,36,72,36
		l-0.4,5.2c2,0.5,3.9,0.8,5.5,1c1.6,0.1,2.8,0.2,3.6,0.2c1.8,0,3.4-0.1,4.6-0.4c1.2-0.3,2.2-0.7,2.9-1.2s1.3-1.3,1.6-2.2
		c0.3-0.9,0.5-2,0.5-3.3c0-1.7-0.4-3.1-1.2-4.2C88.3,29.8,86.9,28.9,84.9,28z"/>
	<polygon points="98,18.4 91.4,18.4 91.4,23.9 98,23.9 98,41.8 105.3,41.8 105.3,23.9 111.9,23.9 111.9,18.4 105.3,18.4 	"/>
	<path d="M119.5,42c1.9,0,3.9,0,5.9-0.1c2,0,3.8-0.2,5.6-0.4l-0.3-5.5h-7.9c-0.4,0-0.8-0.1-1-0.3c-0.3-0.2-0.4-0.5-0.4-0.9V18.4
		h-7.4v18.2c0,1.6,0.5,2.9,1.5,3.9C116.4,41.5,117.8,42,119.5,42z"/>
	<polygon points="22,61.2 15.5,61.2 15.5,66.7 22,66.7 22,84.6 29.4,84.6 29.4,66.7 35.9,66.7 35.9,61.2 29.4,61.2 	"/>
	<path d="M61.2,75.6c0,0.6-0.1,1.2-0.1,1.9c0,0.7-0.1,1.3-0.1,2h-0.5c-0.1-0.6-0.2-1.3-0.3-1.9c-0.1-0.7-0.2-1.3-0.2-1.9l-1.6-12.2
		c-0.1-0.7-0.4-1.2-0.8-1.6s-1-0.6-1.7-0.6h-5.3c-0.7,0-1.2,0.2-1.7,0.6c-0.5,0.4-0.7,0.9-0.8,1.6l-1.6,12.2c-0.1,0.6-0.2,1.3-0.3,2
		c-0.1,0.7-0.2,1.4-0.3,2h-0.5c0-0.7,0-1.4,0-2.1s-0.1-1.3-0.1-1.8l-1.2-14.4H37l2.9,21.5c0.1,0.6,0.4,1.1,0.8,1.4
		c0.5,0.4,1,0.5,1.7,0.5h6.3c0.6,0,1.2-0.2,1.7-0.5c0.5-0.4,0.8-0.8,0.8-1.4l1.6-12.9c0.1-0.6,0.1-1.1,0.2-1.7
		c0-0.6,0.1-1.2,0.1-1.7h0.6c0,0.6,0.1,1.1,0.1,1.7c0,0.6,0.1,1.2,0.2,1.7l1.6,12.9c0.1,0.6,0.3,1.1,0.8,1.4c0.5,0.4,1,0.5,1.7,0.5
		h6.2c0.6,0,1.2-0.2,1.7-0.5c0.5-0.4,0.8-0.8,0.8-1.4l2.9-21.5h-7.3L61.2,75.6z"/>
	<path d="M84.9,70.8L80.7,69c-0.8-0.3-1.3-0.6-1.6-0.8c-0.3-0.2-0.4-0.5-0.4-0.8c0-0.2,0-0.3,0.1-0.4c0.1-0.1,0.2-0.2,0.3-0.3
		c0.2-0.1,0.4-0.1,0.7-0.1c0.3,0,0.6,0,1.1,0c1.5,0,3,0,4.5,0c1.5,0,2.8,0,3.8,0.1l0.4-4.7c-1.4-0.5-2.9-0.8-4.4-1
		c-1.5-0.1-2.9-0.2-4.1-0.2c-1.8,0-3.3,0.1-4.5,0.3c-1.2,0.2-2.2,0.6-3,1.1c-0.7,0.5-1.3,1.2-1.6,2.1c-0.4,0.9-0.5,2-0.5,3.3
		c0,1.7,0.4,3.1,1.2,4.2c0.8,1.1,2.1,2,4,2.9l4.7,2c0.4,0.2,0.8,0.3,1,0.4c0.2,0.1,0.4,0.3,0.5,0.4c0.1,0.1,0.1,0.3,0.1,0.6
		c0,0.2-0.1,0.4-0.2,0.5c-0.1,0.1-0.4,0.2-0.7,0.3c-0.3,0-0.8,0.1-1.4,0.1c-0.4,0-1,0-1.9,0c-0.8,0-1.8,0-2.9-0.1s-2.4-0.1-3.7-0.1
		l-0.4,5.2c2,0.5,3.9,0.8,5.5,1c1.6,0.1,2.8,0.2,3.6,0.2c1.8,0,3.4-0.1,4.6-0.4c1.2-0.3,2.2-0.7,2.9-1.2s1.3-1.3,1.6-2.2
		c0.3-0.9,0.5-2,0.5-3.3c0-1.7-0.4-3.1-1.2-4.2C88.3,72.6,86.9,71.6,84.9,70.8z"/>
	<polygon points="98,61.2 91.4,61.2 91.4,66.7 98,66.7 98,84.6 105.3,84.6 105.3,66.7 111.9,66.7 111.9,61.2 105.3,61.2 	"/>
	<path d="M122.7,78.8c-0.4,0-0.8-0.1-1-0.3c-0.3-0.2-0.4-0.5-0.4-0.9V61.2h-7.4v18.2c0,1.6,0.5,2.9,1.5,3.9c1,1,2.4,1.5,4.1,1.5
		c1.9,0,3.9,0,5.9-0.1c2,0,3.8-0.2,5.6-0.4l-0.3-5.5H122.7z"/>
	<polygon points="22,103.9 15.5,103.9 15.5,109.4 22,109.4 22,127.4 29.4,127.4 29.4,109.4 35.9,109.4 35.9,103.9 29.4,103.9 	"/>
	<path d="M61.2,118.4c0,0.6-0.1,1.2-0.1,1.9c0,0.7-0.1,1.3-0.1,2h-0.5c-0.1-0.6-0.2-1.3-0.3-1.9c-0.1-0.7-0.2-1.3-0.2-1.9l-1.6-12.2
		c-0.1-0.7-0.4-1.2-0.8-1.6s-1-0.6-1.7-0.6h-5.3c-0.7,0-1.2,0.2-1.7,0.6c-0.5,0.4-0.7,0.9-0.8,1.6l-1.6,12.2c-0.1,0.6-0.2,1.3-0.3,2
		c-0.1,0.7-0.2,1.4-0.3,2h-0.5c0-0.7,0-1.4,0-2.1s-0.1-1.3-0.1-1.8l-1.2-14.4H37l2.9,21.5c0.1,0.6,0.4,1.1,0.8,1.4
		c0.5,0.4,1,0.5,1.7,0.5h6.3c0.6,0,1.2-0.2,1.7-0.5c0.5-0.4,0.8-0.8,0.8-1.4l1.6-12.9c0.1-0.6,0.1-1.1,0.2-1.7
		c0-0.6,0.1-1.2,0.1-1.7h0.6c0,0.6,0.1,1.1,0.1,1.7c0,0.6,0.1,1.2,0.2,1.7l1.6,12.9c0.1,0.6,0.3,1.1,0.8,1.4c0.5,0.4,1,0.5,1.7,0.5
		h6.2c0.6,0,1.2-0.2,1.7-0.5c0.5-0.4,0.8-0.8,0.8-1.4l2.9-21.5h-7.3L61.2,118.4z"/>
	<path d="M84.9,113.6l-4.2-1.8c-0.8-0.3-1.3-0.6-1.6-0.8c-0.3-0.2-0.4-0.5-0.4-0.8c0-0.2,0-0.3,0.1-0.4c0.1-0.1,0.2-0.2,0.3-0.3
		c0.2-0.1,0.4-0.1,0.7-0.1c0.3,0,0.6,0,1.1,0c1.5,0,3,0,4.5,0c1.5,0,2.8,0,3.8,0.1l0.4-4.7c-1.4-0.5-2.9-0.8-4.4-1
		c-1.5-0.1-2.9-0.2-4.1-0.2c-1.8,0-3.3,0.1-4.5,0.3c-1.2,0.2-2.2,0.6-3,1.1c-0.7,0.5-1.3,1.2-1.6,2.1c-0.4,0.9-0.5,2-0.5,3.3
		c0,1.7,0.4,3.1,1.2,4.2c0.8,1.1,2.1,2,4,2.9l4.7,2c0.4,0.2,0.8,0.3,1,0.4c0.2,0.1,0.4,0.3,0.5,0.4c0.1,0.1,0.1,0.3,0.1,0.6
		c0,0.2-0.1,0.4-0.2,0.5c-0.1,0.1-0.4,0.2-0.7,0.3c-0.3,0-0.8,0.1-1.4,0.1c-0.4,0-1,0-1.9,0c-0.8,0-1.8,0-2.9-0.1s-2.4-0.1-3.7-0.1
		l-0.4,5.2c2,0.5,3.9,0.8,5.5,1c1.6,0.1,2.8,0.2,3.6,0.2c1.8,0,3.4-0.1,4.6-0.4c1.2-0.3,2.2-0.7,2.9-1.2s1.3-1.3,1.6-2.2
		c0.3-0.9,0.5-2,0.5-3.3c0-1.7-0.4-3.1-1.2-4.2C88.3,115.4,86.9,114.4,84.9,113.6z"/>
	<polygon points="98,103.9 91.4,103.9 91.4,109.4 98,109.4 98,127.4 105.3,127.4 105.3,109.4 111.9,109.4 111.9,103.9 105.3,103.9 	
		"/>
	<path d="M122.7,121.5c-0.4,0-0.8-0.1-1-0.3c-0.3-0.2-0.4-0.5-0.4-0.9v-16.4h-7.4v18.2c0,1.6,0.5,2.9,1.5,3.9c1,1,2.4,1.5,4.1,1.5
		c1.9,0,3.9,0,5.9-0.1c2,0,3.8-0.2,5.6-0.4l-0.3-5.5H122.7z"/>
</g>
</svg>
