<?xml version="1.0" encoding="utf-8"?>
<!-- Generator: Adobe Illustrator 28.3.0, SVG Export Plug-In . SVG Version: 6.00 Build 0)  -->
<svg version="1.1" id="Layer_1" xmlns="http://www.w3.org/2000/svg" xmlns:xlink="http://www.w3.org/1999/xlink" x="0px" y="0px"
	 viewBox="0 0 143.4 143.4" style="enable-background:new 0 0 143.4 143.4;" xml:space="preserve">
<style type="text/css">
	.st0{fill:#141414;}
	.st1{fill-rule:evenodd;clip-rule:evenodd;fill:#141414;}
</style>
<g>
	<g>
		<g transform="translate(-180.000000, -225.000000)">
			<path class="st1" d="M289.9,263.7c-10-10.1-26.3-10.1-36.4,0c-1.4,1.4-1.8,2-1.8,2s-1.1-1.4-1.8-2c-10-10.1-26.3-10.1-36.4,0
				c-10,10-10,26.3,0,36.4l36.6,36.6c0.9,0.9,2.3,0.9,3.1,0l36.6-36.6C299.9,290,299.9,273.7,289.9,263.7z M247.1,290.8l0.4-1.1
				l0.7-2.1c0.8-2.2,2.2-4.2,4.1-5.7l4.8-3.8l2.3-1.8c0.2-0.2,0.5,0.1,0.3,0.3l-1.4,2.6l-3,5.4c-1.2,2.1-3,3.9-5,4.9l-2,1l-1,0.5
				C247.3,291.2,247.1,291,247.1,290.8z M241.2,280.9l0-2.9c0-0.2,0.3-0.3,0.4-0.1l1.1,2.7l2.3,5.7c0.9,2.2,1.2,4.7,0.8,7l-0.4,2.2
				l-0.2,1.1c0,0.2-0.3,0.2-0.4,0.1l-0.5-0.8l-0.1-0.1l-1.2-1.9c-1.2-1.9-1.9-4.4-1.9-6.8L241.2,280.9z M231.2,293.2
				c-0.2-0.1,0-0.5,0.2-0.4l2.8,0.8l5.9,1.7c2.3,0.7,4.4,2,5.9,3.8l1.5,1.7l0.8,0.9c0.1,0.1,0,0.4-0.2,0.4l-1.1-0.1l-2.2-0.2
				c-2.3-0.2-4.6-1.2-6.5-2.7l-4.8-3.9L231.2,293.2z M251.9,305.3c-1.6,1.6-3.8,2.8-6.2,3.4l-6,1.3l-2.9,0.6c-0.2,0-0.4-0.3-0.2-0.4
				l2.4-1.7l5-3.6c1.9-1.4,4.3-2.2,6.6-2.3l2.2-0.1l1.2,0c0.2,0,0.3,0.2,0.2,0.4l-0.8,0.8L251.9,305.3z M258,308.9l-2.7,5.5
				l-1.3,2.7c-0.1,0.2-0.4,0.1-0.4-0.1l0.2-3l0.4-6.1c0.1-2.4,1-4.8,2.3-6.6l1.3-1.8l0.7-0.9c0.1-0.2,0.4-0.1,0.4,0.1l0.1,1.1
				l0.3,2.2C259.5,304.3,259.1,306.7,258,308.9z M269.3,307.9l-2.2-2l-4.6-4.1c-1.8-1.6-3.1-3.8-3.7-6l-0.6-2.2l-0.3-1.1
				c-0.1-0.2,0.2-0.4,0.3-0.2l1,0.6l1.9,1.2c1.9,1.2,3.6,3.1,4.6,5.3l2.6,5.6l1.2,2.7C269.8,307.9,269.5,308.1,269.3,307.9z
				 M272.1,290l-2.9,0.5l-6.1,1c-2.4,0.4-4.9,0.1-7-0.8l-2.1-0.9l-1.1-0.5c-0.2-0.1-0.2-0.4,0-0.4l0.9-0.3l0.2-0.1l2.1-0.8
				c2.1-0.8,4.7-0.9,7-0.3l6,1.4l2.9,0.7C272.4,289.6,272.4,289.9,272.1,290z"/>
		</g>
	</g>
</g>
</svg>
