<?xml version="1.0" encoding="utf-8"?>
<!-- Generator: Adobe Illustrator 28.3.0, SVG Export Plug-In . SVG Version: 6.00 Build 0)  -->
<svg version="1.1" id="Layer_1" xmlns="http://www.w3.org/2000/svg" xmlns:xlink="http://www.w3.org/1999/xlink" x="0px" y="0px"
	 viewBox="0 0 143.4 143.4" style="enable-background:new 0 0 143.4 143.4;" xml:space="preserve">
<style type="text/css">
	.st0{fill:#141414;}
	.st1{fill-rule:evenodd;clip-rule:evenodd;fill:#141414;}
</style>
<g>
	<g>
		<path d="M125.4,55.3l-0.3-14.9c0-0.6-0.4-1.2-1-1.3c-0.8-0.1-1.6,0.5-1.6,1.2c0,0-0.3,11-0.3,14.1c0,0.5-0.4,0.8-0.8,0.8l0,0
			c-0.5,0-0.8-0.3-0.8-0.8c-0.1-3.2-0.3-14.1-0.3-14.1c0-0.8-0.8-1.4-1.6-1.2c-0.6,0.1-1,0.7-1,1.3l-0.3,14.1c0,0.5-0.4,0.8-0.8,0.8
			l0,0c-0.5,0-0.8-0.3-0.8-0.8c-0.1-3.2-0.3-14.1-0.3-14.1c0-0.8-0.8-1.4-1.6-1.2c-0.6,0.1-1,0.7-1,1.3l-0.3,14.9l0,0l0,0v1.9
			c0,2,0.7,3.9,1.9,5.1l2.5,2.5l-2.5,34.8c-0.2,2.5,1.9,4.7,4.4,4.7h0.5c2.5,0,4.6-2.1,4.4-4.7L121,64.8l2.5-2.5
			c1.2-1.2,1.9-3,1.9-5.1L125.4,55.3L125.4,55.3L125.4,55.3z"/>
	</g>
	<path d="M31.5,99.5l-2.8-40.3l-1-18.3c-0.1-0.9-0.8-1.5-1.6-1.5c-2.5,0-4.6,1.8-4.9,4.3l-3,19.7c-0.5,3.2,2,6,5.2,6h1.1l-2.1,30.2
		c-0.2,2.5,1.9,4.7,4.4,4.7h0.5C29.6,104.3,31.6,102.1,31.5,99.5z"/>
	<path d="M72.3,46.8c-14.6,0-26.4,11.8-26.4,26.4s11.8,26.4,26.4,26.4s26.4-11.8,26.4-26.4S86.9,46.8,72.3,46.8z M69.2,69.2l0.2-0.7
		L70,67c0.5-1.5,1.5-2.8,2.8-3.9l3.3-2.6l1.6-1.2c0.1-0.1,0.3,0,0.2,0.2l-1,1.8l-2,3.7c-0.8,1.4-2,2.6-3.4,3.4L70.1,69l-0.7,0.4
		C69.3,69.4,69.2,69.3,69.2,69.2z M65.2,62.4l0-2c0-0.2,0.2-0.2,0.3-0.1l0.8,1.8l1.6,3.9c0.6,1.5,0.8,3.2,0.5,4.7l-0.3,1.5L68,73.1
		c0,0.1-0.2,0.2-0.3,0.1l-0.4-0.6l-0.1-0.1l-0.8-1.3c-0.8-1.3-1.3-3-1.3-4.6L65.2,62.4z M58.4,70.8c-0.1-0.1,0-0.3,0.1-0.3l1.9,0.6
		l4,1.2c1.6,0.5,3,1.4,4,2.6l1,1.2l0.5,0.6c0.1,0.1,0,0.3-0.1,0.2l-0.7-0.1l-0.1,0l-1.5-0.2c-1.5-0.2-3.1-0.8-4.4-1.8l-3.2-2.6
		L58.4,70.8z M72.5,79.1c-1.1,1.1-2.6,1.9-4.2,2.3l-4.1,0.9l-2,0.4c-0.2,0-0.3-0.2-0.1-0.3l1.6-1.2l3.4-2.4c1.3-0.9,3-1.5,4.5-1.6
		l1.5,0l0.8,0c0.1,0,0.2,0.2,0.1,0.3l-0.5,0.5L73.5,78L72.5,79.1z M76.6,81.5l-1.9,3.7L73.9,87c-0.1,0.2-0.3,0.1-0.3-0.1l0.1-2
		l0.2-4.2c0.1-1.6,0.7-3.2,1.6-4.5l0.9-1.2l0.5-0.6c0.1-0.1,0.2-0.1,0.3,0.1l0.1,0.8l0.2,1.5C77.6,78.3,77.3,80,76.6,81.5z
		 M84.3,80.8l-1.5-1.3l-3.1-2.8c-1.2-1.1-2.1-2.5-2.5-4l-0.4-1.5l-0.2-0.8c0-0.1,0.1-0.2,0.2-0.2l0.7,0.4l1.3,0.8
		c1.3,0.8,2.4,2.1,3.1,3.6l1.8,3.8l0.9,1.8C84.6,80.8,84.4,80.9,84.3,80.8z M86.2,68.6l-2,0.3l-4.1,0.7c-1.6,0.3-3.3,0.1-4.7-0.5
		L74,68.5l-0.7-0.3c-0.1-0.1-0.1-0.2,0-0.3l0.7-0.3l1.4-0.5c1.5-0.5,3.2-0.6,4.8-0.2l4.1,1l2,0.5C86.4,68.4,86.4,68.6,86.2,68.6z"/>
	<path d="M72.3,36.1c-20.5,0-37.1,16.6-37.1,37.1s16.6,37.1,37.1,37.1s37.1-16.6,37.1-37.1S92.8,36.1,72.3,36.1z M72.3,102.2
		c-16,0-29-13-29-29c0-16,13-29,29-29c16,0,29,13,29,29C101.3,89.2,88.3,102.2,72.3,102.2z"/>
	<g>
		<path d="M72.3,46.8c-14.6,0-26.4,11.8-26.4,26.4s11.8,26.4,26.4,26.4s26.4-11.8,26.4-26.4S86.9,46.8,72.3,46.8z M69.2,69.2
			l0.2-0.7L70,67c0.5-1.5,1.5-2.8,2.8-3.9l3.3-2.6l1.6-1.2c0.1-0.1,0.3,0,0.2,0.2l-1,1.8l-2,3.7c-0.8,1.4-2,2.6-3.4,3.4L70.1,69
			l-0.7,0.4C69.3,69.4,69.2,69.3,69.2,69.2z M65.2,62.4l0-2c0-0.2,0.2-0.2,0.3-0.1l0.8,1.8l1.6,3.9c0.6,1.5,0.8,3.2,0.5,4.7
			l-0.3,1.5L68,73.1c0,0.1-0.2,0.2-0.3,0.1l-0.4-0.6l-0.1-0.1l-0.8-1.3c-0.8-1.3-1.3-3-1.3-4.6L65.2,62.4z M58.4,70.8
			c-0.1-0.1,0-0.3,0.1-0.3l1.9,0.6l4,1.2c1.6,0.5,3,1.4,4,2.6l1,1.2l0.5,0.6c0.1,0.1,0,0.3-0.1,0.2l-0.7-0.1l-0.1,0l-1.5-0.2
			c-1.5-0.2-3.1-0.8-4.4-1.8l-3.2-2.6L58.4,70.8z M72.5,79.1c-1.1,1.1-2.6,1.9-4.2,2.3l-4.1,0.9l-2,0.4c-0.2,0-0.3-0.2-0.1-0.3
			l1.6-1.2l3.4-2.4c1.3-0.9,3-1.5,4.5-1.6l1.5,0l0.8,0c0.1,0,0.2,0.2,0.1,0.3l-0.5,0.5L73.5,78L72.5,79.1z M76.6,81.5l-1.9,3.7
			L73.9,87c-0.1,0.2-0.3,0.1-0.3-0.1l0.1-2l0.2-4.2c0.1-1.6,0.7-3.2,1.6-4.5l0.9-1.2l0.5-0.6c0.1-0.1,0.2-0.1,0.3,0.1l0.1,0.8
			l0.2,1.5C77.6,78.3,77.3,80,76.6,81.5z M84.3,80.8l-1.5-1.3l-3.1-2.8c-1.2-1.1-2.1-2.5-2.5-4l-0.4-1.5l-0.2-0.8
			c0-0.1,0.1-0.2,0.2-0.2l0.7,0.4l1.3,0.8c1.3,0.8,2.4,2.1,3.1,3.6l1.8,3.8l0.9,1.8C84.6,80.8,84.4,80.9,84.3,80.8z M86.2,68.6
			l-2,0.3l-4.1,0.7c-1.6,0.3-3.3,0.1-4.7-0.5L74,68.5l-0.7-0.3c-0.1-0.1-0.1-0.2,0-0.3l0.7-0.3l1.4-0.5c1.5-0.5,3.2-0.6,4.8-0.2
			l4.1,1l2,0.5C86.4,68.4,86.4,68.6,86.2,68.6z"/>
	</g>
</g>
</svg>
