<?xml version="1.0" encoding="utf-8"?>
<!-- Generator: Adobe Illustrator 28.3.0, SVG Export Plug-In . SVG Version: 6.00 Build 0)  -->
<svg version="1.1" id="Layer_1" xmlns="http://www.w3.org/2000/svg" xmlns:xlink="http://www.w3.org/1999/xlink" x="0px" y="0px"
	 viewBox="0 0 143.4 143.4" style="enable-background:new 0 0 143.4 143.4;" xml:space="preserve">
<style type="text/css">
	.st0{fill:#141414;}
	.st1{fill-rule:evenodd;clip-rule:evenodd;fill:#141414;}
</style>
<path d="M120.1,61.6c-0.9-1.2-2.2-1.9-3.6-1.9H76.1v-24c0-2.4-2-4.4-4.4-4.4c-2.4,0-4.4,2-4.4,4.4v24H27c-1.4,0-2.7,0.7-3.6,1.9
	c-0.9,1.2-1,2.6-0.5,3.9l15.3,43.7c0.7,1.7,2.3,2.9,4.1,2.9h59c1.9,0,3.5-1.2,4.1-2.9l15.3-43.7C121.1,64.2,120.9,62.7,120.1,61.6z
	 M67.4,81.1l0.6-1l1.1-1.9c1.1-1.9,2.9-3.6,5-4.7l5.4-2.7l2.6-1.3c0.2-0.1,0.4,0.2,0.3,0.3L80.4,72l-3.9,4.6
	c-1.5,1.8-3.6,3.2-5.7,3.8l-2.1,0.6l-1.1,0.3C67.5,81.5,67.3,81.3,67.4,81.1z M62.4,76.4l1.2-5.9l0.6-2.8c0-0.2,0.4-0.2,0.4,0
	l0.6,2.8l1.2,5.9c0.5,2.3,0.2,4.8-0.6,6.8l-0.8,2l-0.4,1c-0.1,0.2-0.3,0.2-0.4,0l-0.4-1l-0.8-2C62.2,81.2,62,78.7,62.4,76.4z
	 M51.7,80.5c-0.2-0.2,0.1-0.4,0.3-0.3l2.6,1.3l5.4,2.7c2.1,1.1,3.9,2.8,5,4.7l1.1,1.9l0.6,1c0.1,0.2-0.1,0.4-0.3,0.3l-1.1-0.3
	l-2.1-0.6c-2.1-0.7-4.2-2-5.7-3.8l-3.9-4.6L51.7,80.5z M56.8,98.2l-2.9,0.1c-0.2,0-0.3-0.3-0.1-0.4l2.6-1.2l5.5-2.5
	c2.1-1,4.6-1.3,6.8-1l2.2,0.3l1.1,0.2c0.2,0,0.3,0.3,0.1,0.4l-0.9,0.6L69.3,96c-1.8,1.3-4.2,2-6.5,2.1L56.8,98.2z M77.1,91.9
	L77,94.1c-0.2,2.2-1.1,4.5-2.5,6.4l-3.6,4.8l-1.7,2.3c-0.1,0.2-0.4,0-0.4-0.2l0.7-2.8l1.5-5.8c0.6-2.3,1.8-4.4,3.5-5.9l1.6-1.5
	l0.8-0.8c0.1-0.1,0.4,0,0.4,0.2L77.1,91.9z M85.6,101.7l-1.7-2.3l-3.6-4.8c-1.4-1.9-2.3-4.2-2.5-6.4L77.6,86l-0.1-1.1
	c0-0.2,0.2-0.3,0.4-0.2l0.8,0.8l1.6,1.5c1.6,1.5,2.9,3.7,3.5,5.9l1.5,5.8l0.7,2.8C86,101.7,85.7,101.9,85.6,101.7z M91.6,85
	l-2.9-0.1l-6-0.1c-2.3-0.1-4.7-0.8-6.5-2.1l-1.8-1.2l-0.9-0.6c-0.2-0.1-0.1-0.4,0.1-0.4l1.1-0.2l2.2-0.3c2.2-0.3,4.7,0,6.8,1
	l5.5,2.5l2.6,1.2C91.9,84.6,91.8,85,91.6,85z"/>
</svg>
