<?xml version="1.0" encoding="utf-8"?>
<!-- Generator: Adobe Illustrator 28.3.0, SVG Export Plug-In . SVG Version: 6.00 Build 0)  -->
<svg version="1.1" id="Layer_1" xmlns="http://www.w3.org/2000/svg" xmlns:xlink="http://www.w3.org/1999/xlink" x="0px" y="0px"
	 viewBox="0 0 143.4 143.4" style="enable-background:new 0 0 143.4 143.4;" xml:space="preserve">
<style type="text/css">
	.st0{fill:#141414;}
	.st1{fill-rule:evenodd;clip-rule:evenodd;fill:#141414;}
</style>
<g>
	<path d="M118.9,29.5H24.5c-3.2,0-5.8,2.6-5.8,5.8v12.1h106V35.3C124.7,32.1,122.1,29.5,118.9,29.5z M26,41.6
		c-1.4,0-2.5-1.1-2.5-2.5c0-1.3,1.1-2.4,2.5-2.4c1.3,0,2.4,1.1,2.4,2.4C28.4,40.5,27.3,41.6,26,41.6z M32.9,41.6
		c-1.3,0-2.4-1.1-2.4-2.5c0-1.3,1.1-2.4,2.4-2.4c1.4,0,2.5,1.1,2.5,2.4C35.3,40.5,34.2,41.6,32.9,41.6z M39.8,41.6
		c-1.3,0-2.5-1.1-2.5-2.5c0-1.3,1.1-2.4,2.5-2.4s2.5,1.1,2.5,2.4C42.2,40.5,41.1,41.6,39.8,41.6z"/>
	<path d="M18.7,96h106v12.1c0,3.2-2.6,5.8-5.8,5.8H24.5c-3.2,0-5.8-2.6-5.8-5.8V96z"/>
</g>
<g>
	<g>
		<path d="M70.4,64.5l-2,1.1l-1,0.5c-0.2,0.1-0.4-0.1-0.3-0.3l0.4-1.1l0.7-2.1c0.8-2.2,2.2-4.2,4.1-5.7l4.9-3.8l2.3-1.8
			c0.2-0.1,0.5,0.1,0.3,0.3l-1.4,2.6l-3,5.4C74.3,61.6,72.5,63.4,70.4,64.5z"/>
		<circle cx="64.8" cy="70.6" r="0.4"/>
	</g>
	<g>
		<path d="M76.2,65.7l-2.1-0.9l-1.1-0.5c-0.2-0.1-0.2-0.3,0-0.4l1.1-0.4l2.1-0.8c2.2-0.8,4.7-0.9,7-0.3l6,1.4l2.9,0.7
			c0.2,0.1,0.2,0.4,0,0.4l-2.9,0.5l-6.1,1C80.8,66.9,78.3,66.6,76.2,65.7z"/>
		<circle cx="67.9" cy="65" r="0.4"/>
	</g>
	<g>
		<path d="M78.9,70.9l-0.6-2.2L78,67.6c-0.1-0.2,0.2-0.4,0.3-0.2l1,0.6l1.9,1.2c1.9,1.2,3.6,3.1,4.6,5.3l2.6,5.6l1.3,2.7
			c0.1,0.2-0.2,0.4-0.4,0.3l-2.2-2l-4.6-4.1C80.8,75.3,79.5,73.1,78.9,70.9z"/>
		<circle cx="74.1" cy="64" r="0.4"/>
	</g>
	<g>
		<path d="M76.4,76.2l1.3-1.8l0.7-0.9c0.1-0.2,0.4-0.1,0.4,0.1l0.1,1.1l0.3,2.2c0.3,2.3-0.2,4.8-1.2,6.9l-2.7,5.5L74,92.1
			c-0.1,0.2-0.4,0.1-0.4-0.1l0.2-2.9l0.3-6.1C74.2,80.5,75.1,78.1,76.4,76.2z"/>
		<circle cx="78.9" cy="68.3" r="0.4"/>
	</g>
	<g>
		<path d="M70.7,77.7l2.3-0.1l1.1,0c0.2,0,0.3,0.2,0.2,0.4l-0.8,0.8l-1.6,1.6c-1.6,1.6-3.8,2.8-6.2,3.3l-6,1.3l-2.9,0.6
			c-0.2,0.1-0.4-0.3-0.2-0.4l2.4-1.7l5-3.6C66.1,78.6,68.5,77.8,70.7,77.7z"/>
		<circle cx="78.5" cy="74.6" r="0.4"/>
	</g>
	<g>
		<path d="M66.1,74.1l1.5,1.7l0.8,0.9c0.1,0.2,0,0.4-0.2,0.4L67,76.9l-2.2-0.2c-2.3-0.3-4.6-1.2-6.5-2.7l-4.8-3.9l-2.3-1.9
			c-0.2-0.2,0-0.5,0.2-0.4l2.8,0.8l5.9,1.7C62.4,71,64.6,72.4,66.1,74.1z"/>
		<circle cx="73.3" cy="78.3" r="0.4"/>
	</g>
	<g>
		<path d="M65.9,68.2l-0.4,2.2l-0.2,1.1c0,0.2-0.3,0.2-0.4,0.1l-0.6-1l-1.2-1.9c-1.2-1.9-1.9-4.4-1.9-6.8l0.1-6.2l0-3
			c0-0.2,0.3-0.3,0.4-0.1l1.1,2.7l2.4,5.7C66.1,63.5,66.4,66,65.9,68.2z"/>
		<circle cx="67.2" cy="76.5" r="0.4"/>
	</g>
	<g>
		<path d="M70.4,64.5l-2,1.1l-1,0.5c-0.2,0.1-0.4-0.1-0.3-0.3l0.4-1.1l0.7-2.1c0.8-2.2,2.2-4.2,4.1-5.7l4.9-3.8l2.3-1.8
			c0.2-0.1,0.5,0.1,0.3,0.3l-1.4,2.6l-3,5.4C74.3,61.6,72.5,63.4,70.4,64.5z"/>
		<circle cx="64.8" cy="70.6" r="0.4"/>
	</g>
</g>
</svg>
